<mxfile host="65bd71144e">
    <diagram id="0x0hEcYH8DBag0AwcHm6" name="Page-1">
        <mxGraphModel dx="1471" dy="884" grid="1" gridSize="10" guides="1" tooltips="1" connect="1" arrows="1" fold="1" page="1" pageScale="1" pageWidth="850" pageHeight="1100" math="0" shadow="0">
            <root>
                <mxCell id="0"/>
                <mxCell id="1" parent="0"/>
                <mxCell id="2" value="" style="rounded=1;whiteSpace=wrap;html=1;sketch=1;" parent="1" vertex="1">
                    <mxGeometry x="40" width="760" height="510" as="geometry"/>
                </mxCell>
                <mxCell id="40" value="WIN" style="rounded=0;whiteSpace=wrap;html=1;sketch=1;fontSize=18;fillColor=#d5e8d4;strokeColor=#82b366;" parent="1" vertex="1">
                    <mxGeometry x="670" y="140" width="100" height="30" as="geometry"/>
                </mxCell>
                <mxCell id="38" value="RACE" style="rounded=0;whiteSpace=wrap;html=1;sketch=1;fontSize=18;fillColor=#fff2cc;strokeColor=#d6b656;" parent="1" vertex="1">
                    <mxGeometry x="280" y="140" width="390" height="30" as="geometry"/>
                </mxCell>
                <mxCell id="37" value="FIELD" style="rounded=0;whiteSpace=wrap;html=1;sketch=1;fontSize=18;fillColor=#f8cecc;strokeColor=#b85450;" parent="1" vertex="1">
                    <mxGeometry x="80" y="140" width="200" height="30" as="geometry"/>
                </mxCell>
                <mxCell id="7" value="" style="rounded=0;whiteSpace=wrap;html=1;fontSize=20;sketch=1;" parent="1" vertex="1">
                    <mxGeometry x="80" y="170" width="690" height="300" as="geometry"/>
                </mxCell>
                <mxCell id="15" value="" style="rounded=0;whiteSpace=wrap;html=1;fontSize=20;sketch=1;" parent="1" vertex="1">
                    <mxGeometry x="80" y="170" width="200" height="300" as="geometry"/>
                </mxCell>
                <mxCell id="14" value="" style="rounded=0;whiteSpace=wrap;html=1;fontSize=20;sketch=1;" parent="1" vertex="1">
                    <mxGeometry x="80" y="170" width="200" height="300" as="geometry"/>
                </mxCell>
                <mxCell id="4" value="kanban board" style="text;html=1;strokeColor=none;fillColor=none;align=center;verticalAlign=middle;whiteSpace=wrap;rounded=0;fontSize=20;sketch=1;" parent="1" vertex="1">
                    <mxGeometry x="165" y="100" width="520" height="20" as="geometry"/>
                </mxCell>
                <mxCell id="10" value="ideas&lt;br&gt;&lt;br&gt;&lt;br&gt;&lt;br&gt;funnel" style="rounded=0;whiteSpace=wrap;html=1;fontSize=20;sketch=1;glass=1;" parent="1" vertex="1">
                    <mxGeometry x="80" y="190" width="100" height="280" as="geometry"/>
                </mxCell>
                <mxCell id="11" value="groomed&lt;br&gt;&lt;br&gt;&lt;br&gt;&lt;br&gt;backlog" style="rounded=0;whiteSpace=wrap;html=1;fontSize=20;sketch=1;" parent="1" vertex="1">
                    <mxGeometry x="180" y="190" width="100" height="280" as="geometry"/>
                </mxCell>
                <mxCell id="13" value="PITS" style="text;html=1;strokeColor=none;fillColor=none;align=center;verticalAlign=middle;whiteSpace=wrap;rounded=0;fontSize=20;sketch=1;" parent="1" vertex="1">
                    <mxGeometry x="80" y="170" width="100" height="20" as="geometry"/>
                </mxCell>
                <mxCell id="17" value="" style="rounded=0;whiteSpace=wrap;html=1;fontSize=20;sketch=1;" parent="1" vertex="1">
                    <mxGeometry x="280" y="190" width="300" height="280" as="geometry"/>
                </mxCell>
                <mxCell id="18" value="GRID" style="text;html=1;strokeColor=none;fillColor=none;align=center;verticalAlign=middle;whiteSpace=wrap;rounded=0;fontSize=20;sketch=1;" parent="1" vertex="1">
                    <mxGeometry x="180" y="170" width="100" height="20" as="geometry"/>
                </mxCell>
                <mxCell id="21" value="complex&amp;nbsp;&lt;br&gt;&lt;br&gt;&lt;br&gt;&lt;br&gt;epics" style="rounded=0;whiteSpace=wrap;html=1;fontSize=20;sketch=1;fillColor=#f8cecc;strokeColor=#b85450;" parent="1" vertex="1">
                    <mxGeometry x="280" y="190" width="100" height="280" as="geometry"/>
                </mxCell>
                <mxCell id="22" value="nirvana&lt;br&gt;&lt;br&gt;&lt;br&gt;&lt;br&gt;stories" style="rounded=0;whiteSpace=wrap;html=1;fontSize=20;sketch=1;fillColor=#d5e8d4;strokeColor=#82b366;" parent="1" vertex="1">
                    <mxGeometry x="380" y="190" width="100" height="280" as="geometry"/>
                </mxCell>
                <mxCell id="23" value="simple&lt;br&gt;&lt;br&gt;&lt;br&gt;&lt;br&gt;tasks" style="rounded=0;whiteSpace=wrap;html=1;fontSize=20;sketch=1;fillColor=#fff2cc;strokeColor=#d6b656;" parent="1" vertex="1">
                    <mxGeometry x="480" y="190" width="90" height="280" as="geometry"/>
                </mxCell>
                <mxCell id="24" value="SLOW LANE" style="text;html=1;strokeColor=none;fillColor=none;align=center;verticalAlign=middle;whiteSpace=wrap;rounded=0;fontSize=14;sketch=1;" parent="1" vertex="1">
                    <mxGeometry x="280" y="170" width="100" height="20" as="geometry"/>
                </mxCell>
                <mxCell id="25" value="GROOVE" style="text;html=1;strokeColor=none;fillColor=none;align=center;verticalAlign=middle;whiteSpace=wrap;rounded=0;fontSize=14;sketch=1;" parent="1" vertex="1">
                    <mxGeometry x="380" y="170" width="100" height="20" as="geometry"/>
                </mxCell>
                <mxCell id="26" value="FAST LANE" style="text;html=1;strokeColor=none;fillColor=none;align=center;verticalAlign=middle;whiteSpace=wrap;rounded=0;fontSize=14;sketch=1;" parent="1" vertex="1">
                    <mxGeometry x="480" y="170" width="90" height="20" as="geometry"/>
                </mxCell>
                <mxCell id="27" value="LAST LAP" style="text;html=1;strokeColor=none;fillColor=none;align=center;verticalAlign=middle;whiteSpace=wrap;rounded=0;fontSize=14;sketch=1;" parent="1" vertex="1">
                    <mxGeometry x="570" y="170" width="100" height="20" as="geometry"/>
                </mxCell>
                <mxCell id="28" value="not done&lt;br&gt;&lt;br&gt;&lt;br&gt;&lt;br&gt;deploy" style="rounded=0;whiteSpace=wrap;html=1;fontSize=20;sketch=1;" parent="1" vertex="1">
                    <mxGeometry x="570" y="190" width="100" height="280" as="geometry"/>
                </mxCell>
                <mxCell id="31" value="done&lt;br&gt;&lt;br&gt;&lt;br&gt;&lt;br&gt;product" style="rounded=0;whiteSpace=wrap;html=1;fontSize=20;sketch=1;glass=1;" parent="1" vertex="1">
                    <mxGeometry x="670" y="190" width="100" height="280" as="geometry"/>
                </mxCell>
                <mxCell id="33" value="" style="rounded=0;whiteSpace=wrap;html=1;fontSize=14;sketch=1;" parent="1" vertex="1">
                    <mxGeometry x="670" y="170" width="100" height="20" as="geometry"/>
                </mxCell>
                <mxCell id="35" value="DONE" style="text;html=1;strokeColor=none;fillColor=none;align=center;verticalAlign=middle;whiteSpace=wrap;rounded=0;fontSize=14;sketch=1;" parent="1" vertex="1">
                    <mxGeometry x="670" y="170" width="100" height="20" as="geometry"/>
                </mxCell>
                <mxCell id="41" value="" style="curved=1;endArrow=classic;html=1;fontSize=18;" parent="1" edge="1">
                    <mxGeometry width="50" height="50" relative="1" as="geometry">
                        <mxPoint x="205" y="155" as="sourcePoint"/>
                        <mxPoint x="235" y="65" as="targetPoint"/>
                        <Array as="points">
                            <mxPoint x="255" y="155"/>
                            <mxPoint x="205" y="105"/>
                        </Array>
                    </mxGeometry>
                </mxCell>
                <mxCell id="42" value="planning" style="text;html=1;strokeColor=none;fillColor=none;align=center;verticalAlign=middle;whiteSpace=wrap;rounded=0;sketch=1;fontSize=18;" parent="1" vertex="1">
                    <mxGeometry x="100" y="30" width="10" height="20" as="geometry"/>
                </mxCell>
                <mxCell id="43" value="" style="curved=1;endArrow=classic;html=1;fontSize=18;" parent="1" edge="1">
                    <mxGeometry width="50" height="50" relative="1" as="geometry">
                        <mxPoint x="500" y="150" as="sourcePoint"/>
                        <mxPoint x="530" y="60" as="targetPoint"/>
                        <Array as="points">
                            <mxPoint x="550" y="150"/>
                            <mxPoint x="500" y="100"/>
                        </Array>
                    </mxGeometry>
                </mxCell>
                <mxCell id="44" value="in progress" style="text;html=1;strokeColor=none;fillColor=none;align=center;verticalAlign=middle;whiteSpace=wrap;rounded=0;sketch=1;fontSize=18;" parent="1" vertex="1">
                    <mxGeometry x="490" y="30" width="120" height="20" as="geometry"/>
                </mxCell>
                <mxCell id="45" value="" style="curved=1;endArrow=classic;html=1;fontSize=18;" parent="1" edge="1">
                    <mxGeometry width="50" height="50" relative="1" as="geometry">
                        <mxPoint x="740" y="155" as="sourcePoint"/>
                        <mxPoint x="770" y="65" as="targetPoint"/>
                        <Array as="points">
                            <mxPoint x="790" y="155"/>
                            <mxPoint x="740" y="105"/>
                        </Array>
                    </mxGeometry>
                </mxCell>
                <mxCell id="47" value="retro" style="text;html=1;strokeColor=none;fillColor=none;align=center;verticalAlign=middle;whiteSpace=wrap;rounded=0;sketch=1;fontSize=18;" parent="1" vertex="1">
                    <mxGeometry x="730" y="30" width="40" height="20" as="geometry"/>
                </mxCell>
                <mxCell id="49" value="" style="html=1;verticalLabelPosition=bottom;align=center;labelBackgroundColor=#ffffff;verticalAlign=top;strokeWidth=2;strokeColor=#0080F0;shadow=0;dashed=0;shape=mxgraph.ios7.icons.repeat;pointerEvents=1;sketch=1;fontSize=18;" parent="1" vertex="1">
                    <mxGeometry x="265" y="143" width="30" height="24" as="geometry"/>
                </mxCell>
                <mxCell id="50" value="" style="endArrow=none;dashed=1;html=1;dashPattern=1 3;strokeWidth=2;fontSize=18;" parent="1" edge="1">
                    <mxGeometry width="50" height="50" relative="1" as="geometry">
                        <mxPoint x="80" y="20" as="sourcePoint"/>
                        <mxPoint x="770" y="20" as="targetPoint"/>
                    </mxGeometry>
                </mxCell>
                <mxCell id="51" value="" style="endArrow=none;dashed=1;html=1;dashPattern=1 3;strokeWidth=2;fontSize=18;" parent="1" edge="1">
                    <mxGeometry width="50" height="50" relative="1" as="geometry">
                        <mxPoint x="80" y="60" as="sourcePoint"/>
                        <mxPoint x="770" y="60" as="targetPoint"/>
                    </mxGeometry>
                </mxCell>
                <mxCell id="53" value="kick off" style="text;html=1;strokeColor=none;fillColor=none;align=center;verticalAlign=middle;whiteSpace=wrap;rounded=0;sketch=1;fontSize=18;" parent="1" vertex="1">
                    <mxGeometry x="190" y="30" width="90" height="20" as="geometry"/>
                </mxCell>
                <mxCell id="56" value="" style="curved=1;endArrow=classic;html=1;fontSize=18;" parent="1" edge="1">
                    <mxGeometry width="50" height="50" relative="1" as="geometry">
                        <mxPoint x="155" y="155" as="sourcePoint"/>
                        <mxPoint x="135" y="65" as="targetPoint"/>
                        <Array as="points">
                            <mxPoint x="155" y="155"/>
                            <mxPoint x="110" y="150"/>
                            <mxPoint x="155" y="110"/>
                        </Array>
                    </mxGeometry>
                </mxCell>
            </root>
        </mxGraphModel>
    </diagram>
</mxfile>
